<svg xmlns="http://www.w3.org/2000/svg" width="420" height="520" viewBox="0 0 420 520">
  <defs><linearGradient id="glass" x1="0" y1="0" x2="1" y2="1"><stop offset="0" stop-color="#ffffff" stop-opacity="0.9"/><stop offset="1" stop-color="#d8edf7" stop-opacity="0.42"/></linearGradient></defs>
  <ellipse cx="210" cy="452" rx="120" ry="26" fill="#000" opacity="0.28"/>
  <path d="M110 86h200l-28 334c-3 34-31 60-65 60h-14c-34 0-62-26-65-60L110 86z" fill="url(#glass)" stroke="#f6f0df" stroke-width="10"/>
  <path d="M129 126h162l-23 279c-3 26-24 43-58 43s-55-17-58-43z" fill="#ffffff"/>
  <path d="M196 126h34l-14 322h-34z" fill="#ce1124"/>
  <path d="M136 252h146l-4 42H140z" fill="#ce1124"/>
  <path d="M132 96c14-28 142-28 156 0" fill="none" stroke="#ffffff" stroke-width="22" stroke-linecap="round" opacity="0.55"/>
  <path d="M156 112c-16 96-11 190 10 280" fill="none" stroke="#ffffff" stroke-width="12" opacity="0.28"/>
</svg>
